<svg width="10" height="8" viewBox="0 0 10 8" fill="none" xmlns="http://www.w3.org/2000/svg">
<path d="M5.96973 0.21967C6.26262 -0.0732234 6.73738 -0.0732234 7.03027 0.21967L9.53027 2.71967C9.82314 3.01257 9.82316 3.48733 9.53027 3.78022L7.03027 6.28022C6.73739 6.57307 6.26261 6.57307 5.96973 6.28022C5.67684 5.98733 5.67686 5.51256 5.96973 5.21967L7.18945 3.99994H2.75C2.05964 3.99994 1.5 4.55959 1.5 5.24994V6.74994C1.49997 7.16413 1.16419 7.49994 0.75 7.49994C0.335805 7.49994 3.04072e-05 7.16413 0 6.74994V5.24994C0 3.73116 1.23122 2.49994 2.75 2.49994H7.18945L5.96973 1.28022C5.67684 0.987333 5.67686 0.512566 5.96973 0.21967Z" fill="black"/>
</svg>
