<?xml version="1.0" encoding="utf-8"?>
<svg xmlns="http://www.w3.org/2000/svg" xmlns:xlink="http://www.w3.org/1999/xlink" width="378" height="378">
  <path fill="none" stroke="white" stroke-width="2" stroke-linecap="round" stroke-miterlimit="4" transform="matrix(-6.44859 -9.7371e-07 9.80596e-07 -6.49419 189 189)" d="M24 0C24 13.2548 13.2548 24 1.90735e-06 24C-13.2548 24 -24 13.2548 -24 0C-24 -13.2548 -13.2548 -24 1.90735e-06 -24C13.2548 -24 24 -13.2548 24 0Z"></path>
  <path fill="none" stroke="white" stroke-width="14" stroke-linecap="round" stroke-miterlimit="4" transform="matrix(1.00265 0 0 1.00265 34.2341 188.756)" d="M7.64285 -28.6176C20.4955 -47.508 46.0241 -41.9795 56.1637 -35.5849C69.9734 -26.8758 86.4108 -9.50021 89.7637 -5.89413C90.396 -5.21405 91.0591 -4.50725 91.7493 -3.77719"></path>
</svg>